<?xml version="1.0" encoding="UTF-8" standalone="no"?><!-- Generator: Gravit.io --><svg xmlns="http://www.w3.org/2000/svg" xmlns:xlink="http://www.w3.org/1999/xlink" style="isolation:isolate" viewBox="0 0 1180 304" width="1180pt" height="304pt"><defs><clipPath id="_clipPath_avs1uhHAIgCtMy6aJ1VhTiIVuBWCYvVo"><rect width="1180" height="304"/></clipPath></defs><g clip-path="url(#_clipPath_avs1uhHAIgCtMy6aJ1VhTiIVuBWCYvVo)"><path d=" M 665 38 L 617 38 L 617 0 L 617 0 L 665 0 L 698 0 L 752 0 L 752 38 L 698 38 L 698 303 L 665 303 L 665 38 L 665 38 L 665 38 L 665 38 L 665 38 Z  M 560.119 151 L 578.388 74.115 L 595.389 151 L 560.119 151 L 560.119 151 L 560.119 151 L 560.119 151 L 560.119 151 L 560.119 151 L 560.119 151 Z  M 197 151 L 197 0 L 197 303 L 348 303 L 348 224 L 253.255 224 L 253.255 38 L 348 38 L 348 0 L 197 0 L 197 0 L 197 151 L 197 151 L 197 151 L 197 151 L 197 151 L 197 151 L 197 151 L 197 151 L 197 151 L 197 151 Z  M 351 303 L 351 0 L 453 0 L 491 38 L 491 80 L 453 110 L 392 110 L 491 303 L 453 303 L 351 110 L 392 110 L 392 303 L 351 303 L 351 303 L 351 303 L 351 303 L 351 303 L 351 303 L 351 303 L 351 303 L 351 303 L 351 303 Z  M 754 151 L 754 0 L 754 303 L 907 303 L 907 224 L 811 224 L 811 38 L 907 38 L 907 0 L 754 0 L 754 0 L 754 151 L 754 151 L 754 151 L 754 151 Z  M 909 0 L 909 303 L 935 303 L 935 151 L 1021 151 L 1021 303 L 1047 303 L 1047 0 L 1021 0 L 1021 110 L 935 110 L 935 0 L 909 0 L 909 0 L 909 0 Z  M 1149 65 L 1128 95 L 1099 95 L 1099 303 L 1128 303 L 1128 95 L 1049 0 L 1083 65 L 1113 65 L 1083 0 L 1113 65 L 1143 0 L 1179 0 L 1149 65 L 1113 65 L 1099 65 L 1083 65 L 1099 95 L 1083 65 L 1128 65 L 1149 65 L 1149 65 Z  M 550.376 192 L 524 303 L 493 303 L 493 303 L 562 0 L 562 0 L 596 0 L 663 303 L 629 303 L 604.455 192 L 550.376 192 L 550.376 192 L 550.376 192 L 550.376 192 L 550.376 192 L 550.376 192 L 550.376 192 Z  M 195 0 L 195 47 L 65 47 L 65 110 L 195 110 L 195 303 L 0 303 L 0 245 L 137 245 L 137 192 L 0 192 L 0 0 L 195 0 Z " fill-rule="evenodd" fill="rgb(0,0,0)" vector-effect="non-scaling-stroke" stroke-width="1" stroke="rgb(0,0,0)" stroke-linejoin="miter" stroke-linecap="square" stroke-miterlimit="3"/><path d=" M 388 76 L 388 37 L 441 37 L 453 56 L 441 76 L 388 76 Z " fill="rgb(255,255,255)" vector-effect="non-scaling-stroke" stroke-width="1" stroke="rgb(0,0,0)" stroke-linejoin="miter" stroke-linecap="square" stroke-miterlimit="3"/><rect x="351" y="110" width="41" height="82" transform="matrix(1,0,0,1,0,0)" fill="rgb(0,0,0)"/><rect x="1099" y="65" width="14" height="30" transform="matrix(1,0,0,1,0,0)" fill="rgb(0,0,0)"/><path d=" M 1128 95 L 1099 95 L 1083 65 L 1099 65 L 1049 0 L 1083 0 L 1113 65 L 1128 95 Z " fill="rgb(0,0,0)" vector-effect="non-scaling-stroke" stroke-width="1" stroke="rgb(0,0,0)" stroke-linejoin="miter" stroke-linecap="square" stroke-miterlimit="3"/></g></svg>